<mxfile host="65bd71144e">
    <diagram id="dAbVWbnR_n2Lc5l3kBvO" name="ページ1">
        <mxGraphModel dx="2597" dy="1006" grid="1" gridSize="10" guides="1" tooltips="1" connect="1" arrows="1" fold="1" page="1" pageScale="1" pageWidth="827" pageHeight="1169" math="0" shadow="0">
            <root>
                <mxCell id="0"/>
                <mxCell id="1" parent="0"/>
                <mxCell id="7" style="edgeStyle=none;html=1;entryX=0;entryY=0.5;entryDx=0;entryDy=0;entryPerimeter=0;exitX=1;exitY=0.5;exitDx=0;exitDy=0;" parent="1" source="4" target="5" edge="1">
                    <mxGeometry relative="1" as="geometry">
                        <mxPoint x="106" y="180" as="sourcePoint"/>
                    </mxGeometry>
                </mxCell>
                <mxCell id="4" value="旧基盤" style="rounded=0;whiteSpace=wrap;html=1;" parent="1" vertex="1">
                    <mxGeometry x="-20" y="120" width="120" height="60" as="geometry"/>
                </mxCell>
                <mxCell id="5" value="旧基盤&lt;br&gt;DB" style="shape=cylinder3;whiteSpace=wrap;html=1;boundedLbl=1;backgroundOutline=1;size=15;" parent="1" vertex="1">
                    <mxGeometry x="170" y="200" width="70" height="80" as="geometry"/>
                </mxCell>
                <mxCell id="9" style="edgeStyle=none;html=1;entryX=1;entryY=0.5;entryDx=0;entryDy=0;entryPerimeter=0;exitX=0;exitY=0.5;exitDx=0;exitDy=0;" parent="1" source="8" target="5" edge="1">
                    <mxGeometry relative="1" as="geometry"/>
                </mxCell>
                <mxCell id="23" style="edgeStyle=none;html=1;entryX=0;entryY=0.5;entryDx=0;entryDy=0;" parent="1" source="8" target="10" edge="1">
                    <mxGeometry relative="1" as="geometry"/>
                </mxCell>
                <mxCell id="8" value="&lt;div style=&quot;color: rgb(204, 204, 204); background-color: rgb(31, 31, 31); font-family: Menlo, Monaco, &amp;quot;Courier New&amp;quot;, monospace; font-size: 16px; line-height: 24px;&quot;&gt;Debezium&lt;/div&gt;" style="rounded=0;whiteSpace=wrap;html=1;" parent="1" vertex="1">
                    <mxGeometry x="320" y="210" width="113.5" height="60" as="geometry"/>
                </mxCell>
                <mxCell id="10" value="&lt;div style=&quot;color: rgb(204, 204, 204); background-color: rgb(31, 31, 31); font-family: Menlo, Monaco, &amp;quot;Courier New&amp;quot;, monospace; font-size: 16px; line-height: 24px;&quot;&gt;Kafka&lt;/div&gt;" style="rounded=0;whiteSpace=wrap;html=1;" parent="1" vertex="1">
                    <mxGeometry x="520" y="210" width="113.5" height="60" as="geometry"/>
                </mxCell>
                <mxCell id="16" style="edgeStyle=none;html=1;entryX=1;entryY=0.5;entryDx=0;entryDy=0;" parent="1" source="11" target="10" edge="1">
                    <mxGeometry relative="1" as="geometry"/>
                </mxCell>
                <mxCell id="17" style="edgeStyle=none;html=1;entryX=0.5;entryY=0;entryDx=0;entryDy=0;entryPerimeter=0;" parent="1" source="11" target="12" edge="1">
                    <mxGeometry relative="1" as="geometry"/>
                </mxCell>
                <mxCell id="11" value="&lt;div style=&quot;color: rgb(204, 204, 204); background-color: rgb(31, 31, 31); font-family: Menlo, Monaco, &amp;quot;Courier New&amp;quot;, monospace; font-size: 16px; line-height: 24px;&quot;&gt;Consumer&lt;/div&gt;" style="rounded=0;whiteSpace=wrap;html=1;" parent="1" vertex="1">
                    <mxGeometry x="721.25" y="210" width="113.5" height="60" as="geometry"/>
                </mxCell>
                <mxCell id="12" value="新基盤&lt;br&gt;DB" style="shape=cylinder3;whiteSpace=wrap;html=1;boundedLbl=1;backgroundOutline=1;size=15;" parent="1" vertex="1">
                    <mxGeometry x="743" y="340" width="70" height="80" as="geometry"/>
                </mxCell>
                <mxCell id="14" style="edgeStyle=none;html=1;entryX=0;entryY=0.5;entryDx=0;entryDy=0;entryPerimeter=0;exitX=1;exitY=0.5;exitDx=0;exitDy=0;" parent="1" source="13" target="5" edge="1">
                    <mxGeometry relative="1" as="geometry"/>
                </mxCell>
                <mxCell id="13" value="新基盤" style="rounded=0;whiteSpace=wrap;html=1;" parent="1" vertex="1">
                    <mxGeometry x="-20" y="330" width="120" height="60" as="geometry"/>
                </mxCell>
                <mxCell id="19" value="Insert,Update,Delete" style="text;html=1;strokeColor=none;fillColor=none;align=center;verticalAlign=middle;whiteSpace=wrap;rounded=0;" parent="1" vertex="1">
                    <mxGeometry x="60" y="190" width="60" height="30" as="geometry"/>
                </mxCell>
                <mxCell id="20" value="Insert,Update,Delete" style="text;html=1;strokeColor=none;fillColor=none;align=center;verticalAlign=middle;whiteSpace=wrap;rounded=0;" parent="1" vertex="1">
                    <mxGeometry x="60" y="280" width="60" height="30" as="geometry"/>
                </mxCell>
                <mxCell id="21" value="変更監視" style="text;html=1;strokeColor=none;fillColor=none;align=center;verticalAlign=middle;whiteSpace=wrap;rounded=0;" parent="1" vertex="1">
                    <mxGeometry x="260" y="200" width="60" height="30" as="geometry"/>
                </mxCell>
                <mxCell id="22" value="差分情報" style="text;html=1;strokeColor=none;fillColor=none;align=center;verticalAlign=middle;whiteSpace=wrap;rounded=0;" parent="1" vertex="1">
                    <mxGeometry x="433.5" y="200" width="60" height="30" as="geometry"/>
                </mxCell>
                <mxCell id="24" value="差分情報取得" style="text;html=1;strokeColor=none;fillColor=none;align=center;verticalAlign=middle;whiteSpace=wrap;rounded=0;" parent="1" vertex="1">
                    <mxGeometry x="661.25" y="200" width="60" height="30" as="geometry"/>
                </mxCell>
                <mxCell id="26" value="差分情報更新" style="text;html=1;strokeColor=none;fillColor=none;align=center;verticalAlign=middle;whiteSpace=wrap;rounded=0;" parent="1" vertex="1">
                    <mxGeometry x="710" y="280" width="60" height="30" as="geometry"/>
                </mxCell>
                <mxCell id="27" style="edgeStyle=none;html=1;entryX=0;entryY=0.5;entryDx=0;entryDy=0;entryPerimeter=0;exitX=1;exitY=0.5;exitDx=0;exitDy=0;" edge="1" parent="1" source="28" target="29">
                    <mxGeometry relative="1" as="geometry">
                        <mxPoint x="98" y="1320" as="sourcePoint"/>
                    </mxGeometry>
                </mxCell>
                <mxCell id="28" value="旧基盤" style="rounded=0;whiteSpace=wrap;html=1;" vertex="1" parent="1">
                    <mxGeometry x="-28" y="1260" width="120" height="60" as="geometry"/>
                </mxCell>
                <mxCell id="29" value="新基盤&lt;br&gt;DB" style="shape=cylinder3;whiteSpace=wrap;html=1;boundedLbl=1;backgroundOutline=1;size=15;" vertex="1" parent="1">
                    <mxGeometry x="162" y="1340" width="70" height="80" as="geometry"/>
                </mxCell>
                <mxCell id="30" style="edgeStyle=none;html=1;entryX=1;entryY=0.5;entryDx=0;entryDy=0;entryPerimeter=0;exitX=0;exitY=0.5;exitDx=0;exitDy=0;" edge="1" parent="1" source="32" target="29">
                    <mxGeometry relative="1" as="geometry"/>
                </mxCell>
                <mxCell id="31" style="edgeStyle=none;html=1;entryX=0;entryY=0.5;entryDx=0;entryDy=0;" edge="1" parent="1" source="32" target="33">
                    <mxGeometry relative="1" as="geometry"/>
                </mxCell>
                <mxCell id="32" value="&lt;div style=&quot;color: rgb(204, 204, 204); background-color: rgb(31, 31, 31); font-family: Menlo, Monaco, &amp;quot;Courier New&amp;quot;, monospace; font-size: 16px; line-height: 24px;&quot;&gt;Debezium&lt;/div&gt;" style="rounded=0;whiteSpace=wrap;html=1;" vertex="1" parent="1">
                    <mxGeometry x="312" y="1350" width="113.5" height="60" as="geometry"/>
                </mxCell>
                <mxCell id="33" value="&lt;div style=&quot;color: rgb(204, 204, 204); background-color: rgb(31, 31, 31); font-family: Menlo, Monaco, &amp;quot;Courier New&amp;quot;, monospace; font-size: 16px; line-height: 24px;&quot;&gt;Kafka&lt;/div&gt;" style="rounded=0;whiteSpace=wrap;html=1;" vertex="1" parent="1">
                    <mxGeometry x="512" y="1350" width="113.5" height="60" as="geometry"/>
                </mxCell>
                <mxCell id="34" style="edgeStyle=none;html=1;entryX=1;entryY=0.5;entryDx=0;entryDy=0;" edge="1" parent="1" source="36" target="33">
                    <mxGeometry relative="1" as="geometry"/>
                </mxCell>
                <mxCell id="35" style="edgeStyle=none;html=1;entryX=0.5;entryY=0;entryDx=0;entryDy=0;entryPerimeter=0;" edge="1" parent="1" source="36" target="37">
                    <mxGeometry relative="1" as="geometry"/>
                </mxCell>
                <mxCell id="36" value="&lt;div style=&quot;color: rgb(204, 204, 204); background-color: rgb(31, 31, 31); font-family: Menlo, Monaco, &amp;quot;Courier New&amp;quot;, monospace; font-size: 16px; line-height: 24px;&quot;&gt;Consumer&lt;/div&gt;" style="rounded=0;whiteSpace=wrap;html=1;" vertex="1" parent="1">
                    <mxGeometry x="713.25" y="1350" width="113.5" height="60" as="geometry"/>
                </mxCell>
                <mxCell id="37" value="旧基盤&lt;br&gt;DB" style="shape=cylinder3;whiteSpace=wrap;html=1;boundedLbl=1;backgroundOutline=1;size=15;" vertex="1" parent="1">
                    <mxGeometry x="735" y="1480" width="70" height="80" as="geometry"/>
                </mxCell>
                <mxCell id="38" style="edgeStyle=none;html=1;entryX=0;entryY=0.5;entryDx=0;entryDy=0;entryPerimeter=0;exitX=1;exitY=0.5;exitDx=0;exitDy=0;" edge="1" parent="1" source="39" target="29">
                    <mxGeometry relative="1" as="geometry"/>
                </mxCell>
                <mxCell id="39" value="新基盤" style="rounded=0;whiteSpace=wrap;html=1;" vertex="1" parent="1">
                    <mxGeometry x="-28" y="1470" width="120" height="60" as="geometry"/>
                </mxCell>
                <mxCell id="40" value="Insert,Update,Delete" style="text;html=1;strokeColor=none;fillColor=none;align=center;verticalAlign=middle;whiteSpace=wrap;rounded=0;" vertex="1" parent="1">
                    <mxGeometry x="52" y="1330" width="60" height="30" as="geometry"/>
                </mxCell>
                <mxCell id="41" value="Insert,Update,Delete" style="text;html=1;strokeColor=none;fillColor=none;align=center;verticalAlign=middle;whiteSpace=wrap;rounded=0;" vertex="1" parent="1">
                    <mxGeometry x="52" y="1420" width="60" height="30" as="geometry"/>
                </mxCell>
                <mxCell id="42" value="変更監視" style="text;html=1;strokeColor=none;fillColor=none;align=center;verticalAlign=middle;whiteSpace=wrap;rounded=0;" vertex="1" parent="1">
                    <mxGeometry x="252" y="1340" width="60" height="30" as="geometry"/>
                </mxCell>
                <mxCell id="43" value="差分情報" style="text;html=1;strokeColor=none;fillColor=none;align=center;verticalAlign=middle;whiteSpace=wrap;rounded=0;" vertex="1" parent="1">
                    <mxGeometry x="425.5" y="1340" width="60" height="30" as="geometry"/>
                </mxCell>
                <mxCell id="44" value="差分情報取得" style="text;html=1;strokeColor=none;fillColor=none;align=center;verticalAlign=middle;whiteSpace=wrap;rounded=0;" vertex="1" parent="1">
                    <mxGeometry x="653.25" y="1340" width="60" height="30" as="geometry"/>
                </mxCell>
                <mxCell id="45" value="差分情報更新" style="text;html=1;strokeColor=none;fillColor=none;align=center;verticalAlign=middle;whiteSpace=wrap;rounded=0;" vertex="1" parent="1">
                    <mxGeometry x="702" y="1420" width="60" height="30" as="geometry"/>
                </mxCell>
                <mxCell id="47" value="&lt;h1&gt;新基盤DBに書き込みを集約する&lt;/h1&gt;" style="text;html=1;strokeColor=none;fillColor=none;spacing=5;spacingTop=-20;whiteSpace=wrap;overflow=hidden;rounded=0;" vertex="1" parent="1">
                    <mxGeometry x="15" y="1190" width="380" height="40" as="geometry"/>
                </mxCell>
                <mxCell id="49" value="&lt;h1&gt;旧基盤DBに書き込みを集約する&lt;/h1&gt;&lt;p&gt;&lt;br&gt;&lt;/p&gt;" style="text;html=1;strokeColor=none;fillColor=none;spacing=5;spacingTop=-20;whiteSpace=wrap;overflow=hidden;rounded=0;" vertex="1" parent="1">
                    <mxGeometry x="5" y="20" width="400" height="50" as="geometry"/>
                </mxCell>
                <mxCell id="59" style="edgeStyle=none;html=1;entryX=0.5;entryY=0;entryDx=0;entryDy=0;fontFamily=Helvetica;fontSize=12;" edge="1" parent="1" source="51" target="56">
                    <mxGeometry relative="1" as="geometry"/>
                </mxCell>
                <mxCell id="51" value="&lt;div style=&quot;color: rgb(204, 204, 204); background-color: rgb(31, 31, 31); font-family: Menlo, Monaco, &amp;quot;Courier New&amp;quot;, monospace; font-size: 16px; line-height: 24px;&quot;&gt;&lt;span style=&quot;color: #569cd6;&quot;&gt;INSERT INTO&lt;/span&gt; t1 (id, col1, col2) &lt;span style=&quot;color: #569cd6;&quot;&gt;VALUES&lt;/span&gt; (&lt;span style=&quot;color: #b5cea8;&quot;&gt;0&lt;/span&gt;, &lt;span style=&quot;color: #ce9178;&quot;&gt;'col1'&lt;/span&gt;, &lt;span style=&quot;color: #ce9178;&quot;&gt;'col2'&lt;/span&gt;);&lt;/div&gt;" style="text;html=1;strokeColor=none;fillColor=none;align=left;verticalAlign=middle;whiteSpace=wrap;rounded=0;" vertex="1" parent="1">
                    <mxGeometry x="81.75" y="640" width="590" height="30" as="geometry"/>
                </mxCell>
                <mxCell id="61" style="edgeStyle=none;html=1;fontFamily=Helvetica;fontSize=12;" edge="1" parent="1" source="52" target="57">
                    <mxGeometry relative="1" as="geometry"/>
                </mxCell>
                <mxCell id="52" value="&lt;div style=&quot;background-color: rgb(31, 31, 31); font-family: Menlo, Monaco, &amp;quot;Courier New&amp;quot;, monospace; font-size: 16px; line-height: 24px;&quot;&gt;&lt;span style=&quot;color: rgb(86, 156, 214);&quot;&gt;INSERT INTO&lt;/span&gt;&lt;span style=&quot;color: rgb(204, 204, 204);&quot;&gt; t1 (id, col1, col2, col3) &lt;/span&gt;&lt;span style=&quot;color: rgb(86, 156, 214);&quot;&gt;VALUES&lt;/span&gt;&lt;span style=&quot;color: rgb(204, 204, 204);&quot;&gt; (&lt;/span&gt;&lt;span style=&quot;color: rgb(181, 206, 168);&quot;&gt;0&lt;/span&gt;&lt;span style=&quot;color: rgb(204, 204, 204);&quot;&gt;, &lt;/span&gt;&lt;span style=&quot;color: rgb(206, 145, 120);&quot;&gt;'col1'&lt;/span&gt;&lt;span style=&quot;color: rgb(204, 204, 204);&quot;&gt;, &lt;/span&gt;&lt;span style=&quot;color: rgb(206, 145, 120);&quot;&gt;'col2', 'col3'&lt;/span&gt;&lt;span style=&quot;color: rgb(204, 204, 204);&quot;&gt;);&lt;/span&gt;&lt;br&gt;&lt;/div&gt;" style="text;html=1;strokeColor=none;fillColor=none;align=left;verticalAlign=middle;whiteSpace=wrap;rounded=0;" vertex="1" parent="1">
                    <mxGeometry x="23" y="890" width="720" height="10" as="geometry"/>
                </mxCell>
                <mxCell id="58" style="edgeStyle=none;html=1;entryX=0;entryY=0.5;entryDx=0;entryDy=0;fontFamily=Helvetica;fontSize=12;" edge="1" parent="1" source="53" target="54">
                    <mxGeometry relative="1" as="geometry"/>
                </mxCell>
                <mxCell id="53" value="&lt;div style=&quot;color: rgb(204, 204, 204); background-color: rgb(31, 31, 31); font-family: Menlo, Monaco, &amp;quot;Courier New&amp;quot;, monospace; font-size: 16px; line-height: 24px;&quot;&gt;&lt;div style=&quot;line-height: 24px;&quot;&gt;&lt;div&gt;&lt;span style=&quot;color: #569cd6;&quot;&gt;CREATE&lt;/span&gt; &lt;span style=&quot;color: #569cd6;&quot;&gt;TABLE&lt;/span&gt; &lt;span style=&quot;color: #dcdcaa;&quot;&gt;t1&amp;nbsp;&lt;/span&gt;(&lt;/div&gt;&lt;div&gt;&amp;nbsp; &amp;nbsp; id   &lt;span style=&quot;color: #569cd6;&quot;&gt;int&lt;/span&gt; auto_increment,&lt;/div&gt;&lt;div&gt;&amp;nbsp; &amp;nbsp; col1 &lt;span style=&quot;color: #569cd6;&quot;&gt;varchar&lt;/span&gt;(&lt;span style=&quot;color: #b5cea8;&quot;&gt;10&lt;/span&gt;),&lt;/div&gt;&lt;div&gt;&amp;nbsp; &amp;nbsp; col2 &lt;span style=&quot;color: #569cd6;&quot;&gt;varchar&lt;/span&gt;(&lt;span style=&quot;color: #b5cea8;&quot;&gt;10&lt;/span&gt;),&lt;/div&gt;&lt;div&gt;    &lt;span style=&quot;color: #569cd6;&quot;&gt;&amp;nbsp; &amp;nbsp; PRIMARY KEY&lt;/span&gt; (id)&lt;/div&gt;&lt;div&gt;);&lt;/div&gt;&lt;/div&gt;&lt;/div&gt;" style="text;html=1;strokeColor=none;fillColor=none;align=left;verticalAlign=middle;whiteSpace=wrap;rounded=0;" vertex="1" parent="1">
                    <mxGeometry x="30" y="500" width="280" height="30" as="geometry"/>
                </mxCell>
                <mxCell id="54" value="&lt;div style=&quot;color: rgb(204, 204, 204); background-color: rgb(31, 31, 31); font-family: Menlo, Monaco, &amp;quot;Courier New&amp;quot;, monospace; font-size: 16px; line-height: 24px;&quot;&gt;&lt;div style=&quot;line-height: 24px;&quot;&gt;&lt;div style=&quot;line-height: 24px;&quot;&gt;&lt;div&gt;&lt;span style=&quot;color: #569cd6;&quot;&gt;CREATE&lt;/span&gt; &lt;span style=&quot;color: #569cd6;&quot;&gt;TABLE&lt;/span&gt; &lt;span style=&quot;color: #dcdcaa;&quot;&gt;t1&amp;nbsp;&lt;/span&gt;(&lt;/div&gt;&lt;div&gt;&amp;nbsp; &amp;nbsp; id   &lt;span style=&quot;color: #569cd6;&quot;&gt;int&lt;/span&gt; auto_increment,&lt;/div&gt;&lt;div&gt;&amp;nbsp; &amp;nbsp; col1 &lt;span style=&quot;color: #569cd6;&quot;&gt;varchar&lt;/span&gt;(&lt;span style=&quot;color: #b5cea8;&quot;&gt;50&lt;/span&gt;),&lt;/div&gt;&lt;div&gt;&amp;nbsp; &amp;nbsp; col2 &lt;span style=&quot;color: #569cd6;&quot;&gt;varchar&lt;/span&gt;(&lt;span style=&quot;color: #b5cea8;&quot;&gt;10&lt;/span&gt;),&lt;/div&gt;&lt;div&gt;&amp;nbsp; &amp;nbsp; col3 &lt;span style=&quot;color: #569cd6;&quot;&gt;varchar&lt;/span&gt;(&lt;span style=&quot;color: #b5cea8;&quot;&gt;100&lt;/span&gt;),&lt;/div&gt;&lt;div&gt;    &lt;span style=&quot;color: #569cd6;&quot;&gt;&amp;nbsp; &amp;nbsp; PRIMARY KEY&lt;/span&gt; (id)&lt;/div&gt;&lt;div&gt;);&lt;/div&gt;&lt;/div&gt;&lt;/div&gt;&lt;/div&gt;" style="text;html=1;strokeColor=none;fillColor=none;align=left;verticalAlign=middle;whiteSpace=wrap;rounded=0;" vertex="1" parent="1">
                    <mxGeometry x="464.75" y="500" width="370" height="30" as="geometry"/>
                </mxCell>
                <mxCell id="56" value="&lt;div style=&quot;color: rgb(204, 204, 204); background-color: rgb(31, 31, 31); font-family: Menlo, Monaco, &amp;quot;Courier New&amp;quot;, monospace; font-size: 16px; line-height: 24px;&quot;&gt;&lt;span style=&quot;color: #569cd6;&quot;&gt;INSERT INTO&lt;/span&gt; t1 (id, col1, col2, col3) &lt;span style=&quot;color: #569cd6;&quot;&gt;VALUES&lt;/span&gt; (&lt;span style=&quot;color: #b5cea8;&quot;&gt;0&lt;/span&gt;, &lt;span style=&quot;color: #ce9178;&quot;&gt;'col1'&lt;/span&gt;, &lt;span style=&quot;color: #ce9178;&quot;&gt;'col2', NULL&lt;/span&gt;);&lt;/div&gt;" style="text;html=1;strokeColor=none;fillColor=none;align=left;verticalAlign=middle;whiteSpace=wrap;rounded=0;" vertex="1" parent="1">
                    <mxGeometry x="23" y="770" width="707" height="30" as="geometry"/>
                </mxCell>
                <mxCell id="57" value="&lt;div style=&quot;background-color: rgb(31, 31, 31); font-family: Menlo, Monaco, &amp;quot;Courier New&amp;quot;, monospace; font-size: 16px; line-height: 24px;&quot;&gt;&lt;span style=&quot;color: rgb(86, 156, 214);&quot;&gt;INSERT INTO&lt;/span&gt;&lt;span style=&quot;color: rgb(204, 204, 204);&quot;&gt; t1 (id, col1, col2) &lt;/span&gt;&lt;span style=&quot;color: rgb(86, 156, 214);&quot;&gt;VALUES&lt;/span&gt;&lt;span style=&quot;color: rgb(204, 204, 204);&quot;&gt; (&lt;/span&gt;&lt;span style=&quot;color: rgb(181, 206, 168);&quot;&gt;0&lt;/span&gt;&lt;span style=&quot;color: rgb(204, 204, 204);&quot;&gt;, &lt;/span&gt;&lt;span style=&quot;color: rgb(206, 145, 120);&quot;&gt;'col1'&lt;/span&gt;&lt;span style=&quot;color: rgb(204, 204, 204);&quot;&gt;, &lt;/span&gt;&lt;span style=&quot;color: rgb(206, 145, 120);&quot;&gt;'col2'&lt;/span&gt;&lt;span style=&quot;color: rgb(204, 204, 204);&quot;&gt;);&lt;/span&gt;&lt;br&gt;&lt;/div&gt;" style="text;html=1;strokeColor=none;fillColor=none;align=left;verticalAlign=middle;whiteSpace=wrap;rounded=0;" vertex="1" parent="1">
                    <mxGeometry x="23" y="1020" width="720" height="30" as="geometry"/>
                </mxCell>
                <mxCell id="60" value="&lt;div style=&quot;background-color: rgb(31, 31, 31); font-family: Menlo, Monaco, &amp;quot;Courier New&amp;quot;, monospace; font-size: 16px; line-height: 24px;&quot;&gt;&lt;font color=&quot;#569cd6&quot;&gt;旧基盤からの書き込みはできる&lt;/font&gt;&lt;/div&gt;&lt;div style=&quot;background-color: rgb(31, 31, 31); font-family: Menlo, Monaco, &amp;quot;Courier New&amp;quot;, monospace; font-size: 16px; line-height: 24px;&quot;&gt;&lt;font color=&quot;#569cd6&quot;&gt;追加カラムにはNULLを入れる&lt;/font&gt;&lt;/div&gt;" style="text;html=1;strokeColor=none;fillColor=none;align=left;verticalAlign=middle;whiteSpace=wrap;rounded=0;" vertex="1" parent="1">
                    <mxGeometry x="396.25" y="700" width="233.75" height="30" as="geometry"/>
                </mxCell>
                <mxCell id="62" value="&lt;div style=&quot;background-color: rgb(31, 31, 31); font-family: Menlo, Monaco, &amp;quot;Courier New&amp;quot;, monospace; font-size: 16px; line-height: 24px;&quot;&gt;&lt;font color=&quot;#569cd6&quot;&gt;新基盤からの書き込みは出来ない&lt;/font&gt;&lt;/div&gt;&lt;div style=&quot;background-color: rgb(31, 31, 31); font-family: Menlo, Monaco, &amp;quot;Courier New&amp;quot;, monospace; font-size: 16px; line-height: 24px;&quot;&gt;&lt;font color=&quot;#569cd6&quot;&gt;col3を差分情報に含める手段がないので新基盤DBに反映できない&lt;/font&gt;&lt;/div&gt;" style="text;html=1;strokeColor=none;fillColor=none;align=left;verticalAlign=middle;whiteSpace=wrap;rounded=0;" vertex="1" parent="1">
                    <mxGeometry x="398.25" y="940" width="311.75" height="40" as="geometry"/>
                </mxCell>
                <mxCell id="64" value="&lt;div style=&quot;color: rgb(204, 204, 204); background-color: rgb(31, 31, 31); font-family: Menlo, Monaco, &amp;quot;Courier New&amp;quot;, monospace; font-size: 16px; line-height: 24px;&quot;&gt;&lt;div style=&quot;line-height: 24px;&quot;&gt;&lt;div&gt;&lt;span style=&quot;color: #569cd6;&quot;&gt;CREATE&lt;/span&gt; &lt;span style=&quot;color: #569cd6;&quot;&gt;TABLE&lt;/span&gt; &lt;span style=&quot;color: #dcdcaa;&quot;&gt;t1&amp;nbsp;&lt;/span&gt;(&lt;/div&gt;&lt;div&gt;&amp;nbsp; &amp;nbsp; id   &lt;span style=&quot;color: #569cd6;&quot;&gt;int&lt;/span&gt; auto_increment,&lt;/div&gt;&lt;div&gt;&amp;nbsp; &amp;nbsp; col1 &lt;span style=&quot;color: #569cd6;&quot;&gt;varchar&lt;/span&gt;(&lt;span style=&quot;color: #b5cea8;&quot;&gt;10&lt;/span&gt;),&lt;/div&gt;&lt;div&gt;&amp;nbsp; &amp;nbsp; col2 &lt;span style=&quot;color: #569cd6;&quot;&gt;varchar&lt;/span&gt;(&lt;span style=&quot;color: #b5cea8;&quot;&gt;10&lt;/span&gt;),&lt;/div&gt;&lt;div&gt;    &lt;span style=&quot;color: #569cd6;&quot;&gt;&amp;nbsp; &amp;nbsp; PRIMARY KEY&lt;/span&gt; (id)&lt;/div&gt;&lt;div&gt;);&lt;/div&gt;&lt;/div&gt;&lt;/div&gt;" style="text;html=1;strokeColor=none;fillColor=none;align=left;verticalAlign=middle;whiteSpace=wrap;rounded=0;" vertex="1" parent="1">
                    <mxGeometry x="470" y="1660" width="280" height="30" as="geometry"/>
                </mxCell>
                <mxCell id="66" style="edgeStyle=none;html=1;fontFamily=Helvetica;fontSize=12;entryX=0;entryY=0.5;entryDx=0;entryDy=0;" edge="1" parent="1" source="65" target="64">
                    <mxGeometry relative="1" as="geometry">
                        <mxPoint x="410" y="1675" as="targetPoint"/>
                    </mxGeometry>
                </mxCell>
                <mxCell id="65" value="&lt;div style=&quot;color: rgb(204, 204, 204); background-color: rgb(31, 31, 31); font-family: Menlo, Monaco, &amp;quot;Courier New&amp;quot;, monospace; font-size: 16px; line-height: 24px;&quot;&gt;&lt;div style=&quot;line-height: 24px;&quot;&gt;&lt;div style=&quot;line-height: 24px;&quot;&gt;&lt;div&gt;&lt;span style=&quot;color: #569cd6;&quot;&gt;CREATE&lt;/span&gt; &lt;span style=&quot;color: #569cd6;&quot;&gt;TABLE&lt;/span&gt; &lt;span style=&quot;color: #dcdcaa;&quot;&gt;t1&amp;nbsp;&lt;/span&gt;(&lt;/div&gt;&lt;div&gt;&amp;nbsp; &amp;nbsp; id   &lt;span style=&quot;color: #569cd6;&quot;&gt;int&lt;/span&gt; auto_increment,&lt;/div&gt;&lt;div&gt;&amp;nbsp; &amp;nbsp; col1 &lt;span style=&quot;color: #569cd6;&quot;&gt;varchar&lt;/span&gt;(&lt;span style=&quot;color: #b5cea8;&quot;&gt;50&lt;/span&gt;),&lt;/div&gt;&lt;div&gt;&amp;nbsp; &amp;nbsp; col2 &lt;span style=&quot;color: #569cd6;&quot;&gt;varchar&lt;/span&gt;(&lt;span style=&quot;color: #b5cea8;&quot;&gt;10&lt;/span&gt;),&lt;/div&gt;&lt;div&gt;&amp;nbsp; &amp;nbsp; col3 &lt;span style=&quot;color: #569cd6;&quot;&gt;varchar&lt;/span&gt;(&lt;span style=&quot;color: #b5cea8;&quot;&gt;100&lt;/span&gt;),&lt;/div&gt;&lt;div&gt;    &lt;span style=&quot;color: #569cd6;&quot;&gt;&amp;nbsp; &amp;nbsp; PRIMARY KEY&lt;/span&gt; (id)&lt;/div&gt;&lt;div&gt;);&lt;/div&gt;&lt;/div&gt;&lt;/div&gt;&lt;/div&gt;" style="text;html=1;strokeColor=none;fillColor=none;align=left;verticalAlign=middle;whiteSpace=wrap;rounded=0;" vertex="1" parent="1">
                    <mxGeometry x="50" y="1660" width="270" height="30" as="geometry"/>
                </mxCell>
                <mxCell id="88" style="edgeStyle=none;html=1;exitX=0.5;exitY=1;exitDx=0;exitDy=0;entryX=0.5;entryY=0;entryDx=0;entryDy=0;fontFamily=Helvetica;fontSize=12;" edge="1" parent="1" source="76" target="79">
                    <mxGeometry relative="1" as="geometry"/>
                </mxCell>
                <mxCell id="76" value="&lt;div style=&quot;color: rgb(204, 204, 204); background-color: rgb(31, 31, 31); font-family: Menlo, Monaco, &amp;quot;Courier New&amp;quot;, monospace; font-size: 16px; line-height: 24px;&quot;&gt;&lt;span style=&quot;color: #569cd6;&quot;&gt;INSERT INTO&lt;/span&gt; t1 (id, col1, col2) &lt;span style=&quot;color: #569cd6;&quot;&gt;VALUES&lt;/span&gt; (&lt;span style=&quot;color: #b5cea8;&quot;&gt;0&lt;/span&gt;, &lt;span style=&quot;color: #ce9178;&quot;&gt;'col1'&lt;/span&gt;, &lt;span style=&quot;color: #ce9178;&quot;&gt;'col2'&lt;/span&gt;);&lt;/div&gt;" style="text;html=1;strokeColor=none;fillColor=none;align=left;verticalAlign=middle;whiteSpace=wrap;rounded=0;" vertex="1" parent="1">
                    <mxGeometry x="18.5" y="2040" width="710" height="30" as="geometry"/>
                </mxCell>
                <mxCell id="87" style="edgeStyle=none;html=1;fontFamily=Helvetica;fontSize=12;" edge="1" parent="1" source="78" target="80">
                    <mxGeometry relative="1" as="geometry"/>
                </mxCell>
                <mxCell id="78" value="&lt;div style=&quot;background-color: rgb(31, 31, 31); font-family: Menlo, Monaco, &amp;quot;Courier New&amp;quot;, monospace; font-size: 16px; line-height: 24px;&quot;&gt;&lt;span style=&quot;color: rgb(86, 156, 214);&quot;&gt;INSERT INTO&lt;/span&gt;&lt;span style=&quot;color: rgb(204, 204, 204);&quot;&gt; t1 (id, col1, col2, col3) &lt;/span&gt;&lt;span style=&quot;color: rgb(86, 156, 214);&quot;&gt;VALUES&lt;/span&gt;&lt;span style=&quot;color: rgb(204, 204, 204);&quot;&gt; (&lt;/span&gt;&lt;span style=&quot;color: rgb(181, 206, 168);&quot;&gt;0&lt;/span&gt;&lt;span style=&quot;color: rgb(204, 204, 204);&quot;&gt;, &lt;/span&gt;&lt;span style=&quot;color: rgb(206, 145, 120);&quot;&gt;'col1'&lt;/span&gt;&lt;span style=&quot;color: rgb(204, 204, 204);&quot;&gt;, &lt;/span&gt;&lt;span style=&quot;color: rgb(206, 145, 120);&quot;&gt;'col2', 'col3'&lt;/span&gt;&lt;span style=&quot;color: rgb(204, 204, 204);&quot;&gt;);&lt;/span&gt;&lt;br&gt;&lt;/div&gt;" style="text;html=1;strokeColor=none;fillColor=none;align=left;verticalAlign=middle;whiteSpace=wrap;rounded=0;" vertex="1" parent="1">
                    <mxGeometry x="16.5" y="1820" width="720" height="10" as="geometry"/>
                </mxCell>
                <mxCell id="79" value="&lt;div style=&quot;color: rgb(204, 204, 204); background-color: rgb(31, 31, 31); font-family: Menlo, Monaco, &amp;quot;Courier New&amp;quot;, monospace; font-size: 16px; line-height: 24px;&quot;&gt;&lt;span style=&quot;color: #569cd6;&quot;&gt;INSERT INTO&lt;/span&gt; t1 (id, col1, col2, col3) &lt;span style=&quot;color: #569cd6;&quot;&gt;VALUES&lt;/span&gt; (&lt;span style=&quot;color: #b5cea8;&quot;&gt;0&lt;/span&gt;, &lt;span style=&quot;color: #ce9178;&quot;&gt;'col1'&lt;/span&gt;, &lt;span style=&quot;color: #ce9178;&quot;&gt;'col2', ？&lt;/span&gt;);&lt;/div&gt;" style="text;html=1;strokeColor=none;fillColor=none;align=left;verticalAlign=middle;whiteSpace=wrap;rounded=0;" vertex="1" parent="1">
                    <mxGeometry x="20" y="2200" width="707" height="30" as="geometry"/>
                </mxCell>
                <mxCell id="80" value="&lt;div style=&quot;background-color: rgb(31, 31, 31); font-family: Menlo, Monaco, &amp;quot;Courier New&amp;quot;, monospace; font-size: 16px; line-height: 24px;&quot;&gt;&lt;span style=&quot;color: rgb(86, 156, 214);&quot;&gt;INSERT INTO&lt;/span&gt;&lt;span style=&quot;color: rgb(204, 204, 204);&quot;&gt; t1 (id, col1, col2) &lt;/span&gt;&lt;span style=&quot;color: rgb(86, 156, 214);&quot;&gt;VALUES&lt;/span&gt;&lt;span style=&quot;color: rgb(204, 204, 204);&quot;&gt; (&lt;/span&gt;&lt;span style=&quot;color: rgb(181, 206, 168);&quot;&gt;0&lt;/span&gt;&lt;span style=&quot;color: rgb(204, 204, 204);&quot;&gt;, &lt;/span&gt;&lt;span style=&quot;color: rgb(206, 145, 120);&quot;&gt;'col1'&lt;/span&gt;&lt;span style=&quot;color: rgb(204, 204, 204);&quot;&gt;, &lt;/span&gt;&lt;span style=&quot;color: rgb(206, 145, 120);&quot;&gt;'col2'&lt;/span&gt;&lt;span style=&quot;color: rgb(204, 204, 204);&quot;&gt;);&lt;/span&gt;&lt;br&gt;&lt;/div&gt;" style="text;html=1;strokeColor=none;fillColor=none;align=left;verticalAlign=middle;whiteSpace=wrap;rounded=0;" vertex="1" parent="1">
                    <mxGeometry x="15" y="1950" width="720" height="30" as="geometry"/>
                </mxCell>
                <mxCell id="81" value="&lt;div style=&quot;background-color: rgb(31, 31, 31); font-family: Menlo, Monaco, &amp;quot;Courier New&amp;quot;, monospace; font-size: 16px; line-height: 24px;&quot;&gt;&lt;font color=&quot;#569cd6&quot;&gt;旧基盤からの書き込みはできない？&lt;/font&gt;&lt;/div&gt;&lt;div style=&quot;background-color: rgb(31, 31, 31); font-family: Menlo, Monaco, &amp;quot;Courier New&amp;quot;, monospace; font-size: 16px; line-height: 24px;&quot;&gt;&lt;font color=&quot;#569cd6&quot;&gt;旧基盤ではcol3に何を入れるか判断できるのか？&lt;/font&gt;&lt;/div&gt;&lt;div style=&quot;background-color: rgb(31, 31, 31); font-family: Menlo, Monaco, &amp;quot;Courier New&amp;quot;, monospace; font-size: 16px; line-height: 24px;&quot;&gt;&lt;font color=&quot;#569cd6&quot;&gt;col3を入れるにはUIに影響ありそう&lt;/font&gt;&lt;/div&gt;" style="text;html=1;strokeColor=none;fillColor=none;align=left;verticalAlign=middle;whiteSpace=wrap;rounded=0;" vertex="1" parent="1">
                    <mxGeometry x="390.25" y="2090" width="399.75" height="92" as="geometry"/>
                </mxCell>
                <mxCell id="82" value="&lt;div style=&quot;background-color: rgb(31, 31, 31); font-family: Menlo, Monaco, &amp;quot;Courier New&amp;quot;, monospace; font-size: 16px; line-height: 24px;&quot;&gt;&lt;font color=&quot;#569cd6&quot;&gt;新基盤からの書き込みは出来る&lt;/font&gt;&lt;/div&gt;&lt;div style=&quot;background-color: rgb(31, 31, 31); font-family: Menlo, Monaco, &amp;quot;Courier New&amp;quot;, monospace; font-size: 16px; line-height: 24px;&quot;&gt;&lt;font color=&quot;#569cd6&quot;&gt;旧基盤DBへの反映時にcol3を無視すればよい&lt;/font&gt;&lt;/div&gt;" style="text;html=1;strokeColor=none;fillColor=none;align=left;verticalAlign=middle;whiteSpace=wrap;rounded=0;" vertex="1" parent="1">
                    <mxGeometry x="390.25" y="1870" width="311.75" height="40" as="geometry"/>
                </mxCell>
            </root>
        </mxGraphModel>
    </diagram>
</mxfile>